<svg width="53" height="37" viewBox="0 0 53 37" fill="none" xmlns="http://www.w3.org/2000/svg">
<path fill-rule="evenodd" clip-rule="evenodd" d="M45.8097 0.936598L45.5489 0.691657L45.288 0.504351L45.0127 0.345873L44.7373 0.216157L44.433 0.115247L44.1286 0.043143L43.7954 0H43.4765H8.86942H8.52161L8.1883 0.043143L7.86947 0.115247L7.57963 0.216157L7.2753 0.345873L6.99995 0.504351L6.73909 0.691657L6.49272 0.936598L6.26084 1.16711L6.07246 1.42648L5.91304 1.70023L5.78262 1.9884L5.68114 2.27655L5.60875 2.59353L5.56532 2.91051L5.55083 3.25631V27.0872H46.7808V3.25631L46.7519 2.91051L46.7084 2.59353L46.636 2.27655L46.5345 1.9884L46.3751 1.70023L46.2157 1.42648L46.0273 1.16711L45.8097 0.936598ZM43.433 2.49266L43.5345 2.50715L43.6505 2.56477L43.7375 2.63687L43.839 2.73776L43.9694 2.88181L44.0709 3.05471L44.1288 3.22762L44.1722 3.42933V24.566H8.07248V3.45815V3.25642L8.15949 3.02589L8.3044 2.83858L8.33336 2.7665L8.53626 2.60802L8.76813 2.50711L8.89855 2.47828L9.04346 2.49277L43.433 2.49266Z" fill="black"/>
<path fill-rule="evenodd" clip-rule="evenodd" d="M33.8973 5.38871L32.3901 5.2878L32.3322 6.19551L31.9554 6.2388L31.6221 6.32522L31.2888 6.45494L30.9845 6.62784L30.3903 5.95065L29.2454 6.93042L29.8251 7.62201L29.6077 7.89576L29.4338 8.21273L29.2889 8.52971L29.1874 8.88992L28.3034 8.81782L28.2019 10.3162L29.0859 10.3884L29.1438 10.7342L29.2453 11.0799L29.3757 11.3969L29.5497 11.7139L28.854 12.319L29.854 13.4717L30.5496 12.8521L30.8249 13.0539L31.1293 13.2411L31.4481 13.3709L31.7959 13.4861L31.7525 14.3794L33.2597 14.5091L33.3321 13.587L33.6799 13.5149L34.0277 13.4285L34.3465 13.2988L34.6653 13.1547L35.274 13.8463L36.4044 12.8522L35.8102 12.175L35.9986 11.858L36.0856 11.6995L36.1871 11.5554L36.245 11.3825L36.2739 11.2961V11.2673V11.2528H36.2884L36.3174 11.224L36.3753 11.0511L36.4042 10.9647V10.9359V10.9214H36.4187L36.4477 10.8926L37.3752 10.979L37.4475 9.45178L36.5491 9.37969L36.4765 9.01948L36.375 8.6881L36.2446 8.37112L36.1142 8.08297L36.7808 7.49223L35.7809 6.32518L35.0997 6.93031L34.7954 6.7142L34.636 6.61329L34.4911 6.54118L34.1722 6.39715L33.8389 6.29624L33.8973 5.38871ZM33.7669 7.59314L33.8828 7.63643L34.0133 7.70852L34.2596 7.86702L34.4915 8.05432L34.593 8.15523L34.709 8.28495L34.8539 8.47226L34.9843 8.67396L35.0858 8.87567L35.1873 9.10619L35.2452 9.3223L35.2886 9.55284L35.3031 9.79778V10.0571L35.2597 10.2877L35.2017 10.5182L35.1728 10.5615L35.1583 10.6191L35.1294 10.7343L35.0424 10.9649L34.9264 11.1522L34.796 11.3539L34.6366 11.5268L34.4626 11.7141L34.3322 11.8005L34.2162 11.9014L34.1439 11.9302L34.0859 11.9735L33.97 12.0599L33.8251 12.1175L33.6946 12.1752L33.4338 12.2761L33.2309 12.2906L33.0425 12.3194H32.6657L32.4048 12.2761L32.173 12.2328L31.9411 12.1607L31.7382 12.0743L31.5208 11.959L31.3324 11.8293L31.144 11.6708L30.9846 11.5123L30.8107 11.2962L30.6803 11.0945L30.4919 10.6623L30.3904 10.2012L30.3759 9.95626L30.3904 9.72572L30.4628 9.22144L30.6367 8.77479L30.7382 8.55867L30.8831 8.37137L31.0425 8.18406L31.2309 8.02558L31.4193 7.86708L31.6222 7.73737L32.0425 7.55006L32.4917 7.44915L32.7381 7.43468L32.9989 7.44915H33.1873L33.3902 7.47796L33.7669 7.59314Z" fill="black"/>
<path fill-rule="evenodd" clip-rule="evenodd" d="M28.4048 11.8147L26.8396 10.2586L25.8976 11.1807L25.6658 11.0223L25.4484 10.8925L24.9847 10.6764L24.4919 10.5035L23.9992 10.3883V9.06273H21.7819V10.3883L21.2602 10.5035L20.7674 10.6764L20.2892 10.8925L19.84 11.1807L18.9125 10.2586L17.3618 11.8147L18.2748 12.7512L17.9994 13.1834L17.7821 13.6589L17.6082 14.1344L17.4922 14.6675H16.1589V16.8431H17.4922L17.5356 17.088L17.608 17.3474L17.7819 17.8372L17.9993 18.3127L18.2747 18.7738L17.3327 19.6959L18.9123 21.2663L19.8398 20.3298L20.2891 20.5892L20.7673 20.8053L21.26 20.9782L21.7817 21.1079V22.4335H23.999V21.1079L24.4918 20.9782L24.9845 20.8053L25.4482 20.5892L25.4627 20.5604L25.4917 20.5459L25.5496 20.5171L25.6655 20.4595L25.8974 20.3297L26.8394 21.2663L28.4045 19.6958L27.4771 18.7448L27.593 18.5143L27.6509 18.3991L27.6799 18.3415L27.6944 18.3126L27.7233 18.2982L27.9407 17.8371L28.1146 17.3472L28.1725 17.0879L28.2014 16.9582L28.2449 16.8429H29.6071V14.6675H28.2449L28.1145 14.1344L27.9406 13.6589L27.7232 13.1834L27.4768 12.7512L28.4048 11.8147ZM22.9268 12.1749L23.1876 12.1604L23.463 12.1892L23.7238 12.2325L23.9992 12.319L24.376 12.4487L24.7528 12.6504L25.1151 12.8953L25.4629 13.2123L25.6948 13.4716L25.9121 13.7598L26.0861 14.048L26.2455 14.3649L26.3469 14.6819L26.4339 15.0277L26.4774 15.3735L26.5063 15.7481L26.4774 16.0939L26.4484 16.2668L26.4339 16.3532V16.4541L26.405 16.5262L26.3905 16.6127L26.3471 16.7856L26.2892 16.944L26.2457 17.1169L26.1587 17.261L26.1298 17.2898L26.1153 17.3043V17.3331L26.0863 17.4195L25.9994 17.5636L25.9123 17.7221L25.7964 17.8518L25.6949 17.9958L25.5789 18.1255L25.463 18.2696L25.1152 18.5578L25.0137 18.6154L24.9267 18.6875L24.7528 18.8172L24.376 19.0189L23.9992 19.1774L23.7238 19.235L23.463 19.2926L23.1876 19.3214L22.9268 19.3359L22.55 19.2926L22.2022 19.2494L21.8544 19.1484L21.5355 19.0475L21.2167 18.8891L20.9269 18.7162L20.637 18.5L20.3762 18.2695L20.2313 18.1255L20.1153 17.9957L19.8979 17.722L19.7095 17.4194L19.6225 17.2609L19.5646 17.1169L19.4342 16.7855L19.3618 16.4541L19.3183 16.0939L19.3039 15.7481L19.3183 15.3735L19.3618 15.0277L19.4342 14.6819L19.5646 14.3649L19.7095 14.048L19.8979 13.7598L20.1153 13.4716L20.3761 13.2123L20.637 12.9674L20.9268 12.7512L21.2167 12.5639L21.5355 12.4342L21.8544 12.3045L22.2022 12.2324L22.55 12.1891L22.9268 12.1749Z" fill="black"/>
<path fill-rule="evenodd" clip-rule="evenodd" d="M30.1439 16.0795L30.5207 16.5117L30.3758 16.6846L30.2743 16.8863L30.1149 17.333L29.5497 17.3042L29.4482 18.2983L30.0424 18.3416L30.0569 18.5577L30.1293 18.7883L30.2163 18.99L30.3467 19.2061L29.912 19.5951L30.5496 20.3299L30.9844 19.9697L31.1728 20.0995L31.3757 20.2147L31.593 20.3011L31.8249 20.3732L31.796 20.9351L32.7669 21.0072L32.8248 20.4309L33.0422 20.3733L33.2741 20.3157L33.477 20.2292L33.5785 20.1716L33.6944 20.1283L34.0712 20.575L34.8393 19.9266L34.4335 19.4944L34.4914 19.3791L34.5204 19.3215L34.5348 19.2927L34.5638 19.2782L34.6798 19.0765L34.7232 18.9613L34.7811 18.8604L34.8681 18.6443L35.4623 18.7019L35.5057 17.7077L34.9115 17.6644L34.7956 17.2178L34.7232 17.0017L34.6362 16.8L35.0709 16.4109L34.4043 15.6761L33.9695 16.0651L33.7667 15.9067L33.5783 15.7914L33.3609 15.6905L33.158 15.6472L33.2014 15.0709L32.216 14.9845L32.1581 15.5752L31.7088 15.6616L31.2885 15.8489L30.9117 15.4167L30.1439 16.0795ZM32.6221 16.3821L32.854 16.4109L33.1003 16.483L33.4191 16.6703L33.5641 16.7855L33.7235 16.944L33.8974 17.2033L33.9699 17.3474L34.0278 17.4915L34.0857 17.7796L34.1002 17.9381V18.111L34.0712 18.255L34.0423 18.4135L33.9844 18.5576L33.9554 18.6297L33.941 18.7161L33.8539 18.8314L33.7669 18.9611L33.6654 19.0763L33.6076 19.1339L33.5786 19.1627H33.5641V19.1772V19.206L33.3902 19.3213L33.3032 19.3645L33.2308 19.4222L33.0569 19.4943L32.9699 19.5231H32.941H32.9265V19.5376L32.8975 19.5664L32.6367 19.5809H32.5062L32.3903 19.5953L32.057 19.5377L31.7816 19.4225L31.5063 19.264L31.2889 19.0623L31.1729 18.9182L31.0859 18.7885L30.9699 18.5003L30.9265 18.3418L30.9121 18.1978V17.8808L30.941 17.5494L31.057 17.2757L31.2164 17.0163L31.4482 16.8002L31.6946 16.5985L31.9845 16.4544L32.2888 16.3823L32.6221 16.3821Z" fill="black"/>
<path fill-rule="evenodd" clip-rule="evenodd" d="M50.7371 37L50.911 36.9424L51.0849 36.8847L51.2298 36.8127L51.3747 36.7406L51.4907 36.6253L51.6066 36.5244V36.4956L51.6211 36.4811L51.6501 36.4523L51.708 36.3947V36.3659L51.7224 36.3514L51.7514 36.3226L51.8093 36.265L51.8672 36.1065L51.9251 35.948V35.8904V35.8616L51.9396 35.8471L51.9685 35.7607V35.7031V35.6742L51.983 35.6598L52.012 35.5733V35.4581V35.4005V35.3717L52.0265 35.3572V35.2419V35.1843V35.1555L52.0409 35.141L52.0265 35.0977V35.0689V35.0113V34.8961V34.6655H0.0578977L0.0144689 34.8961L0 35.141V35.3571L0.0289378 35.5733L0.101481 35.9479L0.159379 36.1064L0.246391 36.2648L0.318912 36.3946L0.420393 36.5243L0.666762 36.7404L0.797203 36.8125L0.956626 36.8846L1.13052 36.9422L1.33341 36.9998L50.7371 37Z" fill="black"/>
<path fill-rule="evenodd" clip-rule="evenodd" d="M51.3022 33.6429L46.8242 27.9229H5.34785L0.84082 33.6429H51.3022ZM30.651 31.4529L31.651 32.8361H20.5211L21.521 31.4529H30.651ZM46.0416 28.5137L47.9546 30.9486H3.98561L5.89855 28.5137H46.0416Z" fill="black"/>
</svg>
